<?xml version="1.0" encoding="iso-8859-1"?>
<!-- Uploaded to: SVG Repo, www.svgrepo.com, Generator: SVG Repo Mixer Tools -->
<svg fill="#000000" height="800px" width="800px" version="1.1" id="Layer_1" xmlns="http://www.w3.org/2000/svg" xmlns:xlink="http://www.w3.org/1999/xlink" 
	 viewBox="0 0 512 512" xml:space="preserve">
<g>
	<g>
		<g>
			<path d="M469.333,115.2c4.719,0,8.533-3.814,8.533-8.533s-3.814-8.533-8.533-8.533s-8.533,3.814-8.533,8.533
				S464.614,115.2,469.333,115.2z"/>
			<path d="M469.333,320c4.719,0,8.533-3.814,8.533-8.533s-3.814-8.533-8.533-8.533s-8.533,3.814-8.533,8.533
				S464.614,320,469.333,320z"/>
			<path d="M42.667,115.2c4.719,0,8.533-3.814,8.533-8.533s-3.814-8.533-8.533-8.533s-8.533,3.814-8.533,8.533
				S37.948,115.2,42.667,115.2z"/>
			<path d="M42.667,302.933c-4.719,0-8.533,3.814-8.533,8.533S37.948,320,42.667,320s8.533-3.814,8.533-8.533
				S47.386,302.933,42.667,302.933z"/>
			<path d="M469.333,354.133c23.563,0,42.667-19.104,42.667-42.667v-204.8C512,83.104,492.896,64,469.333,64H42.667
				C19.104,64,0,83.104,0,106.667v204.8c0,23.563,19.104,42.667,42.667,42.667h68.267v34.133c0,32.984,26.75,59.733,59.733,59.733
				h332.8c4.713,0,8.533-3.82,8.533-8.533v-34.133c0-4.713-3.82-8.533-8.533-8.533H179.2c-9.427,0-17.067-7.64-17.067-17.067v-25.6
				H469.333z M42.667,337.067c-14.137,0-25.6-11.463-25.6-25.6v-204.8c0-14.137,11.463-25.6,25.6-25.6h426.667
				c14.137,0,25.6,11.463,25.6,25.6v204.8c0,14.137-11.463,25.6-25.6,25.6h-307.2v-9.997c9.94-3.517,17.067-12.995,17.067-24.136
				v-25.6h21.5c3.378,0,6.438-1.992,7.804-5.082c17.817-40.283,17.817-86.087,0-126.37c-1.366-3.089-4.426-5.082-7.804-5.082
				h-30.033H102.4H72.367c-3.378,0-6.438,1.992-7.804,5.082c-17.817,40.283-17.817,86.087,0,126.37
				c1.366,3.089,4.426,5.082,7.804,5.082h21.5v25.6c0,11.141,7.127,20.62,17.067,24.136v9.997H42.667z M110.933,157.867h51.2v8.533
				c0,4.708-3.825,8.533-8.533,8.533h-34.133c-4.708,0-8.533-3.825-8.533-8.533V157.867z M119.467,192H153.6
				c14.134,0,25.6-11.466,25.6-25.6v-8.533h15.825c13.034,32.917,13.034,69.483,0,102.4H179.2v-15.309
				c0-15.115-12.243-27.358-27.358-27.358h-0.004h-30.609h-0.004c-7.558,0-14.397,3.061-19.347,8.011
				c-4.952,4.95-8.015,11.79-8.015,19.347v15.309h-15.82c-13.034-32.917-13.034-69.483,0-102.4h15.825v8.533
				C93.867,180.534,105.333,192,119.467,192z M162.129,244.958v6.775h-51.196v-6.775c0-2.844,1.15-5.417,3.012-7.279
				c1.863-1.862,4.438-3.013,7.284-3.013h30.609C157.527,234.667,162.129,239.269,162.129,244.958z M110.933,268.8h51.196
				c0,0.029,0.004,0.056,0.004,0.085v16.982h-51.2V268.8z M110.933,302.933h51.2c0,4.708-3.825,8.533-8.533,8.533h-34.133
				C114.759,311.467,110.933,307.641,110.933,302.933z M179.2,413.867h315.733v17.067H170.667
				c-23.558,0-42.667-19.109-42.667-42.667V345.6v-17.067h17.067V345.6v34.133C145.067,398.586,160.347,413.867,179.2,413.867z"/>
			<path d="M332.8,209.067c4.713,0,8.533-3.82,8.533-8.533v-17.067c0-4.713-3.821-8.533-8.533-8.533
				c-4.713,0-8.533,3.82-8.533,8.533v17.067C324.267,205.246,328.087,209.067,332.8,209.067z"/>
			<path d="M401.067,209.067c4.713,0,8.533-3.82,8.533-8.533v-17.067c0-4.713-3.82-8.533-8.533-8.533s-8.533,3.82-8.533,8.533
				v17.067C392.533,205.246,396.354,209.067,401.067,209.067z"/>
			<path d="M354.133,243.2h25.6c2.355,0,4.267-1.911,4.267-4.267v-4.267c0-9.421-7.646-17.067-17.067-17.067
				s-17.067,7.646-17.067,17.067v4.267C349.867,241.289,351.778,243.2,354.133,243.2z"/>
			<path d="M302.767,277.333H431.1c3.378,0,6.438-1.992,7.804-5.082c17.817-40.283,17.817-86.087,0-126.37
				c-1.366-3.089-4.426-5.082-7.804-5.082H302.767c-3.378,0-6.438,1.992-7.804,5.082c-17.817,40.283-17.817,86.087,0,126.37
				C296.329,275.341,299.389,277.333,302.767,277.333z M308.442,157.867h116.983c13.034,32.917,13.034,69.483,0,102.4H308.442
				C295.408,227.35,295.408,190.783,308.442,157.867z"/>
		</g>
	</g>
</g>
</svg>