<svg width="56" height="56" viewBox="0 0 56 56" fill="none" xmlns="http://www.w3.org/2000/svg">
<g filter="url(#filter0_d_121_426)">
<path d="M16.8013 23.8916C16.8013 24.2734 16.9473 24.5991 17.2505 24.8911L26.0103 33.46C26.2461 33.707 26.5605 33.8306 26.9199 33.8306C27.6499 33.8306 28.2227 33.269 28.2227 32.5278C28.2227 32.1685 28.0767 31.8428 27.8296 31.5957L19.9346 23.8916L27.8296 16.1875C28.0767 15.9292 28.2227 15.6035 28.2227 15.2441C28.2227 14.5142 27.6499 13.9526 26.9199 13.9526C26.5605 13.9526 26.2461 14.0762 26.0103 14.3232L17.2505 22.8921C16.9473 23.1841 16.8125 23.5098 16.8013 23.8916Z" fill="#3C3C43" fill-opacity="0.6"/>
</g>
<defs>
<filter id="filter0_d_121_426" x="0" y="0" width="56" height="56" filterUnits="userSpaceOnUse" color-interpolation-filters="sRGB">
<feFlood flood-opacity="0" result="BackgroundImageFix"/>
<feColorMatrix in="SourceAlpha" type="matrix" values="0 0 0 0 0 0 0 0 0 0 0 0 0 0 0 0 0 0 127 0" result="hardAlpha"/>
<feOffset dx="4" dy="4"/>
<feGaussianBlur stdDeviation="5"/>
<feComposite in2="hardAlpha" operator="out"/>
<feColorMatrix type="matrix" values="0 0 0 0 0.231373 0 0 0 0 0.25098 0 0 0 0 0.337255 0 0 0 0.1 0"/>
<feBlend mode="normal" in2="BackgroundImageFix" result="effect1_dropShadow_121_426"/>
<feBlend mode="normal" in="SourceGraphic" in2="effect1_dropShadow_121_426" result="shape"/>
</filter>
</defs>
</svg>
